<svg xmlns="http://www.w3.org/2000/svg" xmlns:xlink="http://www.w3.org/1999/xlink" version="1.1" x="0px" y="0px" viewBox="0 0 100 125" enable-background="new 0 0 100 100" xml:space="preserve"><g><circle fill="#000000" cx="9.191" cy="74.355" r="7.914"/><circle fill="#000000" cx="86.007" cy="74.355" r="7.914"/><path fill="#000000" d="M74.688,15.65c-25,0-48.013,0.399-50.791,4.367c-2.778,3.967-11.625,17.059-11.368,26.385v7.343   c0,0-7.968,0.061-6.885,6.575c0,0,17.062,2.903,16.269,14.037h52.376c0,0,2.801-11.09,11.718-11.09s11.297,6.541,11.297,6.541   V31.752C97.304,31.752,99.687,15.65,74.688,15.65z M27.863,51.085h-10.76h-2.333c-0.826-12.92,10.39-27.497,10.39-27.497h2.703   V51.085z M79.167,54.024c-3.059,0-3.29,3.29-3.29,3.29L70.72,69.391c-12.27,2.35-12.699-2.949-12.699-2.949v-9.013   c0.055-0.232,0.091-0.475,0.091-0.722V41.812c0-1.773-1.439-3.21-3.212-3.21c-1.773,0-3.212,1.438-3.212,3.21v10.224   c-0.19,0.49-0.304,0.989-0.352,1.458h-7.013c-1.774,0-3.211,1.438-3.211,3.213c0,1.771,1.438,3.211,3.211,3.211h7.13v9.891H33.022   V23.984h46.145V54.024z"/></g><text x="0" y="115" fill="#000000" font-size="5px" font-weight="bold" font-family="'Helvetica Neue', Helvetica, Arial-Unicode, Arial, Sans-serif">Created by James Fenton</text><text x="0" y="120" fill="#000000" font-size="5px" font-weight="bold" font-family="'Helvetica Neue', Helvetica, Arial-Unicode, Arial, Sans-serif">from the Noun Project</text></svg>